<svg width="323" height="123" viewBox="0 0 323 123" fill="none" xmlns="http://www.w3.org/2000/svg">
<path d="M20.274 64.496C14.7767 64.496 10.3747 63.4627 7.068 61.396C3.76133 59.288 2.108 56.0847 2.108 51.786C2.108 49.5127 2.50067 47.7767 3.286 46.578C4.07133 45.3793 5.22867 44.78 6.758 44.78C7.874 44.78 8.78333 45.0693 9.486 45.648C10.1887 46.2267 10.54 46.9707 10.54 47.88C10.54 48.7067 10.478 49.43 10.354 50.05C10.354 50.2153 10.3127 50.5047 10.23 50.918C10.1887 51.3313 10.168 51.7653 10.168 52.22C10.168 54.08 11.098 55.4647 12.958 56.374C14.8593 57.2833 17.5047 57.738 20.894 57.738C24.4073 57.738 27.156 57.118 29.14 55.878C31.124 54.5967 32.116 52.8193 32.116 50.546C32.116 49.1407 31.6613 47.942 30.752 46.95C29.8427 45.9167 28.706 45.0693 27.342 44.408C25.978 43.7053 24.056 42.858 21.576 41.866C18.3933 40.626 15.7893 39.448 13.764 38.332C11.78 37.216 10.0647 35.7073 8.618 33.806C7.21267 31.8633 6.51 29.466 6.51 26.614C6.51 23.638 7.29533 20.9927 8.866 18.678C10.478 16.3633 12.772 14.5653 15.748 13.284C18.7653 12.0027 22.2993 11.362 26.35 11.362C29.3673 11.362 32.1367 11.8167 34.658 12.726C37.1793 13.594 39.184 14.9373 40.672 16.756C42.2013 18.5747 42.966 20.8067 42.966 23.452C42.966 26.056 42.5733 28.0193 41.788 29.342C41.0027 30.6647 39.8453 31.326 38.316 31.326C37.2413 31.326 36.332 30.9953 35.588 30.334C34.8853 29.6727 34.534 28.8873 34.534 27.978C34.534 27.1927 34.596 26.4693 34.72 25.808C34.844 24.568 34.906 23.7827 34.906 23.452C34.906 21.716 34.0587 20.3933 32.364 19.484C30.6693 18.5747 28.5613 18.12 26.04 18.12C22.4853 18.12 19.7573 18.7813 17.856 20.104C15.996 21.3853 15.066 23.204 15.066 25.56C15.066 27.1307 15.5413 28.474 16.492 29.59C17.484 30.706 18.7033 31.636 20.15 32.38C21.5967 33.124 23.622 34.0127 26.226 35.046C29.3673 36.3273 31.8887 37.4847 33.79 38.518C35.6913 39.5513 37.3033 40.9567 38.626 42.734C39.99 44.5113 40.672 46.702 40.672 49.306C40.672 54.1833 38.812 57.9447 35.092 60.59C31.4133 63.194 26.474 64.496 20.274 64.496ZM51.1103 64.31C48.5476 64.31 46.5016 63.38 44.9723 61.52C43.4429 59.66 42.6783 57.2213 42.6783 54.204C42.6783 50.8973 43.4429 47.7767 44.9723 44.842C46.5016 41.866 48.5269 39.4893 51.0483 37.712C53.6109 35.8933 56.3183 34.984 59.1703 34.984C60.0796 34.984 60.6789 35.17 60.9683 35.542C61.2989 35.8727 61.5676 36.4927 61.7743 37.402C62.6423 37.2367 63.5516 37.154 64.5023 37.154C66.5276 37.154 67.5403 37.8773 67.5403 39.324C67.5403 40.192 67.2303 42.2587 66.6103 45.524C65.6596 50.2773 65.1843 53.584 65.1843 55.444C65.1843 56.064 65.329 56.56 65.6183 56.932C65.9489 57.304 66.3623 57.49 66.8583 57.49C67.6436 57.49 68.5943 56.994 69.7103 56.002C70.8263 54.9687 72.335 53.3153 74.2363 51.042C74.7323 50.4633 75.2903 50.174 75.9103 50.174C76.4476 50.174 76.861 50.422 77.1503 50.918C77.481 51.414 77.6463 52.096 77.6463 52.964C77.6463 54.6173 77.2536 55.8987 76.4683 56.808C74.7736 58.916 72.9756 60.6933 71.0743 62.14C69.173 63.5867 67.3336 64.31 65.5563 64.31C64.1923 64.31 62.9316 63.8553 61.7743 62.946C60.6583 61.9953 59.8109 60.714 59.2323 59.102C57.0829 62.574 54.3756 64.31 51.1103 64.31ZM53.3423 58.048C54.2516 58.048 55.1196 57.5107 55.9463 56.436C56.7729 55.3613 57.3723 53.9353 57.7443 52.158L60.0383 40.75C58.3023 40.7913 56.6903 41.4527 55.2023 42.734C53.7556 43.974 52.5983 45.6273 51.7303 47.694C50.8623 49.7607 50.4283 51.9513 50.4283 54.266C50.4283 55.5473 50.6763 56.498 51.1723 57.118C51.7096 57.738 52.4329 58.048 53.3423 58.048ZM76.4513 64.31C74.5913 64.31 73.062 63.4627 71.8633 61.768C70.706 60.032 70.1273 57.8827 70.1273 55.32C70.1273 52.22 70.334 49.3887 70.7473 46.826C71.1607 44.222 71.8427 41.4733 72.7933 38.58C73.2067 37.34 73.7853 36.4513 74.5293 35.914C75.2733 35.3767 76.4513 35.108 78.0633 35.108C78.9727 35.108 79.5927 35.2527 79.9233 35.542C80.2953 35.8313 80.4813 36.2653 80.4813 36.844C80.4813 37.1747 80.254 38.2907 79.7993 40.192C79.386 41.7213 79.0553 43.106 78.8073 44.346C77.9807 48.686 77.5673 51.5793 77.5673 53.026C77.5673 53.894 77.6707 54.514 77.8773 54.886C78.084 55.2167 78.4147 55.382 78.8693 55.382C79.4893 55.382 80.254 54.762 81.1633 53.522C82.114 52.282 83.106 50.4013 84.1393 47.88C85.214 45.3587 86.2473 42.2587 87.2393 38.58C87.57 37.34 88.066 36.4513 88.7273 35.914C89.43 35.3767 90.4633 35.108 91.8273 35.108C92.778 35.108 93.4393 35.232 93.8113 35.48C94.1833 35.6867 94.3693 36.1 94.3693 36.72C94.3693 37.7533 93.8527 40.5847 92.8193 45.214C91.662 50.5047 91.0833 53.77 91.0833 55.01C91.0833 55.7953 91.2487 56.4153 91.5793 56.87C91.91 57.2833 92.344 57.49 92.8813 57.49C93.708 57.49 94.6793 56.994 95.7953 56.002C96.9527 54.9687 98.482 53.3153 100.383 51.042C100.879 50.4633 101.437 50.174 102.057 50.174C102.595 50.174 103.008 50.422 103.297 50.918C103.628 51.414 103.793 52.096 103.793 52.964C103.793 54.6173 103.401 55.8987 102.615 56.808C100.838 58.9987 98.916 60.7967 96.8493 62.202C94.824 63.6073 92.5093 64.31 89.9053 64.31C87.9213 64.31 86.454 63.5453 85.5033 62.016C84.594 60.4867 84.1393 58.3373 84.1393 55.568C83.4367 58.3787 82.3827 60.5487 80.9773 62.078C79.572 63.566 78.0633 64.31 76.4513 64.31ZM100.688 64.31C99.1173 64.31 98.0013 63.4833 97.34 61.83C96.72 60.1767 96.41 57.5313 96.41 53.894C96.41 48.5207 97.1747 43.416 98.704 38.58C99.076 37.3813 99.6753 36.5133 100.502 35.976C101.37 35.3973 102.569 35.108 104.098 35.108C104.925 35.108 105.503 35.2113 105.834 35.418C106.165 35.6247 106.33 36.0173 106.33 36.596C106.33 37.2573 106.02 38.7453 105.4 41.06C104.987 42.7133 104.656 44.16 104.408 45.4C104.16 46.64 103.953 48.1693 103.788 49.988C105.152 46.4333 106.681 43.54 108.376 41.308C110.071 39.076 111.724 37.4847 113.336 36.534C114.989 35.5833 116.498 35.108 117.862 35.108C120.549 35.108 121.892 36.4513 121.892 39.138C121.892 39.6753 121.706 40.9773 121.334 43.044C121.003 44.6973 120.838 45.7307 120.838 46.144C120.838 47.5907 121.355 48.314 122.388 48.314C123.545 48.314 125.033 47.4047 126.852 45.586C127.389 45.0487 127.947 44.78 128.526 44.78C129.063 44.78 129.477 45.028 129.766 45.524C130.097 45.9787 130.262 46.5987 130.262 47.384C130.262 48.9133 129.849 50.112 129.022 50.98C127.865 52.1787 126.501 53.212 124.93 54.08C123.401 54.9067 121.768 55.32 120.032 55.32C117.841 55.32 116.167 54.762 115.01 53.646C113.894 52.53 113.336 51.0213 113.336 49.12C113.336 48.5 113.398 47.88 113.522 47.26C113.605 46.4333 113.646 45.8753 113.646 45.586C113.646 44.9247 113.419 44.594 112.964 44.594C112.344 44.594 111.517 45.2967 110.484 46.702C109.492 48.066 108.5 49.8847 107.508 52.158C106.516 54.4313 105.71 56.8287 105.09 59.35C104.635 61.2927 104.098 62.6153 103.478 63.318C102.899 63.9793 101.969 64.31 100.688 64.31ZM130.143 31.016C128.407 31.016 127.105 30.6233 126.237 29.838C125.369 29.0113 124.935 27.8747 124.935 26.428C124.935 24.9813 125.493 23.7827 126.609 22.832C127.766 21.84 129.192 21.344 130.887 21.344C132.416 21.344 133.656 21.716 134.607 22.46C135.558 23.204 136.033 24.258 136.033 25.622C136.033 27.2753 135.496 28.598 134.421 29.59C133.346 30.5407 131.92 31.016 130.143 31.016ZM129.647 64.31C126.96 64.31 124.997 63.3593 123.757 61.458C122.558 59.5567 121.959 57.0353 121.959 53.894C121.959 52.034 122.186 49.6573 122.641 46.764C123.137 43.8293 123.757 41.1013 124.501 38.58C124.873 37.2573 125.369 36.348 125.989 35.852C126.609 35.356 127.601 35.108 128.965 35.108C131.073 35.108 132.127 35.8107 132.127 37.216C132.127 38.2493 131.734 40.6467 130.949 44.408C129.957 48.9547 129.461 52.034 129.461 53.646C129.461 54.886 129.626 55.8367 129.957 56.498C130.288 57.1593 130.846 57.49 131.631 57.49C132.375 57.49 133.305 56.9733 134.421 55.94C135.537 54.9067 137.025 53.274 138.885 51.042C139.381 50.4633 139.939 50.174 140.559 50.174C141.096 50.174 141.51 50.422 141.799 50.918C142.13 51.414 142.295 52.096 142.295 52.964C142.295 54.6173 141.902 55.8987 141.117 56.808C137.025 61.8093 133.202 64.31 129.647 64.31ZM145.277 64.31C142.838 64.31 140.751 63.7107 139.015 62.512C137.32 61.272 136.039 59.66 135.171 57.676C134.303 55.692 133.869 53.5633 133.869 51.29C133.869 48.1487 134.447 45.3587 135.605 42.92C136.803 40.44 138.415 38.518 140.441 37.154C142.466 35.7487 144.739 35.046 147.261 35.046C149.699 35.046 151.787 35.666 153.523 36.906C155.259 38.1047 156.561 39.696 157.429 41.68C158.297 43.664 158.731 45.7927 158.731 48.066C158.731 51.2073 158.131 54.018 156.933 56.498C155.734 58.9367 154.101 60.8587 152.035 62.264C150.009 63.628 147.757 64.31 145.277 64.31ZM145.959 57.614C147.364 57.614 148.542 56.8493 149.493 55.32C150.485 53.7907 150.981 51.5587 150.981 48.624C150.981 46.3507 150.567 44.6353 149.741 43.478C148.914 42.3207 147.922 41.742 146.765 41.742C145.277 41.742 144.037 42.5067 143.045 44.036C142.094 45.524 141.619 47.756 141.619 50.732C141.619 53.088 142.032 54.824 142.859 55.94C143.685 57.056 144.719 57.614 145.959 57.614ZM199.451 64.31C194.532 64.31 190.254 63.4213 186.617 61.644C182.979 59.8253 180.189 57.2627 178.247 53.956C176.304 50.6493 175.333 46.8053 175.333 42.424C175.333 36.348 176.469 30.954 178.743 26.242C181.057 21.53 184.178 17.8927 188.105 15.33C192.031 12.726 196.392 11.424 201.187 11.424C205.651 11.424 209.04 12.5813 211.355 14.896C213.669 17.1693 214.827 20.1867 214.827 23.948C214.827 26.4693 214.372 28.4947 213.463 30.024C212.595 31.5533 211.334 32.318 209.681 32.318C208.523 32.318 207.614 32.0493 206.953 31.512C206.291 30.9747 205.961 30.1893 205.961 29.156C205.961 28.784 206.043 28.102 206.209 27.11C206.457 25.87 206.581 24.878 206.581 24.134C206.581 20.3727 204.576 18.492 200.567 18.492C197.839 18.492 195.235 19.3807 192.755 21.158C190.275 22.9353 188.27 25.56 186.741 29.032C185.211 32.4627 184.447 36.5547 184.447 41.308C184.447 46.268 185.831 50.112 188.601 52.84C191.37 55.5267 195.462 56.87 200.877 56.87C203.563 56.87 206.271 56.5393 208.999 55.878C211.768 55.1753 214.827 54.1213 218.175 52.716C218.795 52.468 219.311 52.344 219.725 52.344C220.386 52.344 220.882 52.592 221.213 53.088C221.543 53.584 221.709 54.2247 221.709 55.01C221.709 57.5313 220.345 59.3913 217.617 60.59C214.682 61.8713 211.623 62.822 208.441 63.442C205.299 64.0207 202.303 64.31 199.451 64.31ZM245.379 44.966C245.916 44.966 246.33 45.2347 246.619 45.772C246.908 46.3093 247.053 46.9913 247.053 47.818C247.053 49.802 246.454 50.98 245.255 51.352C242.775 52.22 240.047 52.716 237.071 52.84C236.286 56.312 234.736 59.102 232.421 61.21C230.106 63.2767 227.482 64.31 224.547 64.31C222.067 64.31 219.938 63.7107 218.161 62.512C216.425 61.3133 215.102 59.722 214.193 57.738C213.284 55.754 212.829 53.6047 212.829 51.29C212.829 48.1487 213.428 45.3587 214.627 42.92C215.826 40.44 217.479 38.518 219.587 37.154C221.695 35.7487 224.03 35.046 226.593 35.046C229.734 35.046 232.256 36.1413 234.157 38.332C236.1 40.4813 237.236 43.1473 237.567 46.33C239.51 46.206 241.824 45.7927 244.511 45.09C244.842 45.0073 245.131 44.966 245.379 44.966ZM225.043 57.738C226.366 57.738 227.502 57.2007 228.453 56.126C229.445 55.0513 230.106 53.5013 230.437 51.476C229.156 50.608 228.164 49.4713 227.461 48.066C226.8 46.6607 226.469 45.1727 226.469 43.602C226.469 42.9407 226.531 42.2793 226.655 41.618H226.345C224.692 41.618 223.307 42.424 222.191 44.036C221.116 45.6067 220.579 47.8387 220.579 50.732C220.579 53.0053 221.013 54.7413 221.881 55.94C222.79 57.1387 223.844 57.738 225.043 57.738ZM274.468 50.174C275.005 50.174 275.418 50.422 275.708 50.918C276.038 51.414 276.204 52.096 276.204 52.964C276.204 54.6173 275.811 55.8987 275.026 56.808C273.331 58.8747 271.471 60.652 269.446 62.14C267.42 63.5867 265.416 64.31 263.432 64.31C260.29 64.31 257.893 62.4707 256.24 58.792C254.504 60.9827 252.974 62.45 251.652 63.194C250.37 63.938 248.862 64.31 247.126 64.31C244.604 64.31 242.517 63.38 240.864 61.52C239.252 59.6187 238.446 57.1593 238.446 54.142C238.446 50.8353 239.148 47.7767 240.554 44.966C241.959 42.114 243.881 39.7993 246.32 38.022C248.8 36.2033 251.569 35.1287 254.628 34.798C255.413 26.7793 256.901 19.9387 259.092 14.276C261.324 8.572 264.238 5.72 267.834 5.72C269.611 5.72 271.078 6.526 272.236 8.138C273.434 9.75 274.034 12.1887 274.034 15.454C274.034 20.0833 272.897 25.498 270.624 31.698C268.35 37.898 265.312 44.2633 261.51 50.794C261.675 53.1913 262.026 54.9067 262.564 55.94C263.142 56.9733 263.866 57.49 264.734 57.49C265.85 57.49 266.986 56.994 268.144 56.002C269.301 55.01 270.851 53.3567 272.794 51.042C273.29 50.4633 273.848 50.174 274.468 50.174ZM267.152 11.796C266.366 11.796 265.581 13.2013 264.796 16.012C264.01 18.7813 263.328 22.4187 262.75 26.924C262.212 31.4293 261.82 36.1413 261.572 41.06C266.201 30.9747 268.516 22.8733 268.516 16.756C268.516 15.1853 268.371 13.966 268.082 13.098C267.834 12.23 267.524 11.796 267.152 11.796ZM249.296 58.048C250.081 58.048 250.866 57.738 251.652 57.118C252.437 56.4567 253.429 55.258 254.628 53.522C254.214 51.29 254.008 48.7893 254.008 46.02C254.008 45.028 254.049 43.416 254.132 41.184C251.858 41.8867 249.957 43.416 248.428 45.772C246.94 48.0867 246.196 50.67 246.196 53.522C246.196 56.5393 247.229 58.048 249.296 58.048ZM290.876 52.034C291.413 52.034 291.827 52.282 292.116 52.778C292.447 53.274 292.612 53.956 292.612 54.824C292.612 56.312 292.261 57.5933 291.558 58.668C290.401 60.4453 288.871 61.83 286.97 62.822C285.11 63.814 282.878 64.31 280.274 64.31C276.306 64.31 273.227 63.132 271.036 60.776C268.845 58.3787 267.75 55.1547 267.75 51.104C267.75 48.252 268.349 45.6067 269.548 43.168C270.747 40.688 272.4 38.7247 274.508 37.278C276.657 35.8313 279.075 35.108 281.762 35.108C284.159 35.108 286.081 35.8313 287.528 37.278C288.975 38.6833 289.698 40.6053 289.698 43.044C289.698 45.896 288.665 48.3553 286.598 50.422C284.573 52.4473 281.101 54.0593 276.182 55.258C277.174 57.1593 278.848 58.11 281.204 58.11C282.899 58.11 284.283 57.7173 285.358 56.932C286.474 56.1467 287.755 54.824 289.202 52.964C289.698 52.344 290.256 52.034 290.876 52.034ZM280.708 41.184C279.179 41.184 277.877 42.0727 276.802 43.85C275.769 45.6273 275.252 47.7767 275.252 50.298V50.422C277.691 49.8433 279.613 48.9753 281.018 47.818C282.423 46.6607 283.126 45.3173 283.126 43.788C283.126 43.0027 282.899 42.3827 282.444 41.928C282.031 41.432 281.452 41.184 280.708 41.184Z" fill="url(#paint0_linear_38404_379)"/>
<path d="M45.9434 90.4375L52.6914 93.1719V95.0859L44.7031 91.3848V90.2617L45.9434 90.4375ZM52.6914 88.1914L45.9531 90.9648L44.7031 91.1016V89.9688L52.6914 86.2773V88.1914ZM60.2801 82.7812V97H58.4246V82.7812H60.2801ZM64.8504 82.7812V84.3242H53.8641V82.7812H64.8504ZM69.2945 97.1953C68.5589 97.1953 67.8915 97.0716 67.2926 96.8242C66.7001 96.5703 66.1891 96.2155 65.7594 95.7598C65.3362 95.304 65.0107 94.7637 64.7828 94.1387C64.5549 93.5137 64.441 92.8301 64.441 92.0879V91.6777C64.441 90.8184 64.568 90.0534 64.8219 89.3828C65.0758 88.7057 65.4208 88.1328 65.857 87.6641C66.2932 87.1953 66.788 86.8405 67.3414 86.5996C67.8948 86.3587 68.4677 86.2383 69.0602 86.2383C69.8154 86.2383 70.4664 86.3685 71.0133 86.6289C71.5667 86.8893 72.0191 87.2539 72.3707 87.7227C72.7223 88.1849 72.9827 88.7318 73.152 89.3633C73.3212 89.9883 73.4059 90.6719 73.4059 91.4141V92.2246H65.5152V90.75H71.5992V90.6133C71.5732 90.1445 71.4755 89.6888 71.3062 89.2461C71.1435 88.8034 70.8831 88.4388 70.525 88.1523C70.1669 87.8659 69.6786 87.7227 69.0602 87.7227C68.65 87.7227 68.2724 87.8105 67.9273 87.9863C67.5823 88.1556 67.2861 88.4095 67.0387 88.748C66.7913 89.0866 66.5992 89.5 66.4625 89.9883C66.3258 90.4766 66.2574 91.0397 66.2574 91.6777V92.0879C66.2574 92.5892 66.3258 93.0612 66.4625 93.5039C66.6057 93.9401 66.8108 94.3242 67.0777 94.6562C67.3512 94.9883 67.6799 95.2487 68.0641 95.4375C68.4547 95.6263 68.8974 95.7207 69.3922 95.7207C70.0302 95.7207 70.5706 95.5905 71.0133 95.3301C71.456 95.0697 71.8434 94.7214 72.1754 94.2852L73.2691 95.1543C73.0413 95.4993 72.7516 95.8281 72.4 96.1406C72.0484 96.4531 71.6155 96.707 71.1012 96.9023C70.5934 97.0977 69.9911 97.1953 69.2945 97.1953ZM78.9438 95.7109C79.3734 95.7109 79.7706 95.623 80.1352 95.4473C80.4997 95.2715 80.7992 95.0306 81.0336 94.7246C81.268 94.4121 81.4014 94.0573 81.434 93.6602H83.1527C83.1202 94.2852 82.9086 94.8678 82.518 95.4082C82.1339 95.9421 81.6293 96.375 81.0043 96.707C80.3793 97.0326 79.6924 97.1953 78.9438 97.1953C78.1495 97.1953 77.4561 97.0553 76.8637 96.7754C76.2777 96.4954 75.7895 96.1113 75.3988 95.623C75.0147 95.1348 74.725 94.5749 74.5297 93.9434C74.3409 93.3053 74.2465 92.6315 74.2465 91.9219V91.5117C74.2465 90.8021 74.3409 90.1315 74.5297 89.5C74.725 88.862 75.0147 88.2988 75.3988 87.8105C75.7895 87.3223 76.2777 86.9382 76.8637 86.6582C77.4561 86.3783 78.1495 86.2383 78.9438 86.2383C79.7706 86.2383 80.4932 86.4076 81.1117 86.7461C81.7302 87.0781 82.2152 87.5339 82.5668 88.1133C82.9249 88.6862 83.1202 89.3372 83.1527 90.0664H81.434C81.4014 89.6302 81.2777 89.2363 81.0629 88.8848C80.8546 88.5332 80.5681 88.2533 80.2035 88.0449C79.8454 87.8301 79.4255 87.7227 78.9438 87.7227C78.3904 87.7227 77.9249 87.8333 77.5473 88.0547C77.1762 88.2695 76.8799 88.5625 76.6586 88.9336C76.4438 89.2982 76.2875 89.7051 76.1898 90.1543C76.0987 90.597 76.0531 91.0495 76.0531 91.5117V91.9219C76.0531 92.3841 76.0987 92.8398 76.1898 93.2891C76.281 93.7383 76.434 94.1452 76.6488 94.5098C76.8702 94.8743 77.1664 95.1673 77.5375 95.3887C77.9151 95.6035 78.3839 95.7109 78.9438 95.7109ZM86.1906 82V97H84.384V82H86.1906ZM85.7609 91.3164L85.009 91.2871C85.0155 90.5645 85.1229 89.8971 85.3312 89.2852C85.5396 88.6667 85.8326 88.1296 86.2102 87.6738C86.5878 87.2181 87.037 86.8665 87.5578 86.6191C88.0852 86.3652 88.6678 86.2383 89.3059 86.2383C89.8267 86.2383 90.2954 86.3099 90.7121 86.4531C91.1288 86.5898 91.4836 86.8112 91.7766 87.1172C92.076 87.4232 92.3039 87.8203 92.4602 88.3086C92.6164 88.7904 92.6945 89.3796 92.6945 90.0762V97H90.8781V90.0566C90.8781 89.5033 90.7967 89.0605 90.634 88.7285C90.4712 88.39 90.2336 88.1458 89.9211 87.9961C89.6086 87.8398 89.2245 87.7617 88.7687 87.7617C88.3195 87.7617 87.9094 87.8561 87.5383 88.0449C87.1737 88.2337 86.8579 88.4941 86.591 88.8262C86.3306 89.1582 86.1255 89.5391 85.9758 89.9688C85.8326 90.3919 85.7609 90.8411 85.7609 91.3164ZM96.4062 88.6895V97H94.5996V86.4336H96.3086L96.4062 88.6895ZM95.9766 91.3164L95.2246 91.2871C95.2311 90.5645 95.3385 89.8971 95.5469 89.2852C95.7552 88.6667 96.0482 88.1296 96.4258 87.6738C96.8034 87.2181 97.2526 86.8665 97.7734 86.6191C98.3008 86.3652 98.8835 86.2383 99.5215 86.2383C100.042 86.2383 100.511 86.3099 100.928 86.4531C101.344 86.5898 101.699 86.8112 101.992 87.1172C102.292 87.4232 102.52 87.8203 102.676 88.3086C102.832 88.7904 102.91 89.3796 102.91 90.0762V97H101.094V90.0566C101.094 89.5033 101.012 89.0605 100.85 88.7285C100.687 88.39 100.449 88.1458 100.137 87.9961C99.8242 87.8398 99.4401 87.7617 98.9844 87.7617C98.5352 87.7617 98.125 87.8561 97.7539 88.0449C97.3893 88.2337 97.0736 88.4941 96.8066 88.8262C96.5462 89.1582 96.3411 89.5391 96.1914 89.9688C96.0482 90.3919 95.9766 90.8411 95.9766 91.3164ZM104.376 91.834V91.6094C104.376 90.8477 104.486 90.1413 104.708 89.4902C104.929 88.8327 105.248 88.263 105.665 87.7812C106.082 87.293 106.586 86.9154 107.179 86.6484C107.771 86.375 108.435 86.2383 109.171 86.2383C109.913 86.2383 110.58 86.375 111.173 86.6484C111.772 86.9154 112.279 87.293 112.696 87.7812C113.119 88.263 113.442 88.8327 113.663 89.4902C113.884 90.1413 113.995 90.8477 113.995 91.6094V91.834C113.995 92.5957 113.884 93.3021 113.663 93.9531C113.442 94.6042 113.119 95.1738 112.696 95.6621C112.279 96.1439 111.775 96.5215 111.182 96.7949C110.596 97.0618 109.932 97.1953 109.19 97.1953C108.448 97.1953 107.781 97.0618 107.188 96.7949C106.596 96.5215 106.088 96.1439 105.665 95.6621C105.248 95.1738 104.929 94.6042 104.708 93.9531C104.486 93.3021 104.376 92.5957 104.376 91.834ZM106.182 91.6094V91.834C106.182 92.3613 106.244 92.8594 106.368 93.3281C106.492 93.7904 106.677 94.2005 106.925 94.5586C107.179 94.9167 107.494 95.1999 107.872 95.4082C108.249 95.61 108.689 95.7109 109.19 95.7109C109.685 95.7109 110.118 95.61 110.489 95.4082C110.867 95.1999 111.179 94.9167 111.427 94.5586C111.674 94.2005 111.86 93.7904 111.983 93.3281C112.113 92.8594 112.179 92.3613 112.179 91.834V91.6094C112.179 91.0885 112.113 90.597 111.983 90.1348C111.86 89.666 111.671 89.2526 111.417 88.8945C111.169 88.5299 110.857 88.2435 110.479 88.0352C110.108 87.8268 109.672 87.7227 109.171 87.7227C108.676 87.7227 108.24 87.8268 107.862 88.0352C107.491 88.2435 107.179 88.5299 106.925 88.8945C106.677 89.2526 106.492 89.666 106.368 90.1348C106.244 90.597 106.182 91.0885 106.182 91.6094ZM117.423 82V97H115.607V82H117.423ZM119.045 91.834V91.6094C119.045 90.8477 119.156 90.1413 119.377 89.4902C119.599 88.8327 119.918 88.263 120.334 87.7812C120.751 87.293 121.256 86.9154 121.848 86.6484C122.44 86.375 123.105 86.2383 123.84 86.2383C124.582 86.2383 125.25 86.375 125.842 86.6484C126.441 86.9154 126.949 87.293 127.366 87.7812C127.789 88.263 128.111 88.8327 128.332 89.4902C128.554 90.1413 128.664 90.8477 128.664 91.6094V91.834C128.664 92.5957 128.554 93.3021 128.332 93.9531C128.111 94.6042 127.789 95.1738 127.366 95.6621C126.949 96.1439 126.444 96.5215 125.852 96.7949C125.266 97.0618 124.602 97.1953 123.86 97.1953C123.118 97.1953 122.45 97.0618 121.858 96.7949C121.265 96.5215 120.758 96.1439 120.334 95.6621C119.918 95.1738 119.599 94.6042 119.377 93.9531C119.156 93.3021 119.045 92.5957 119.045 91.834ZM120.852 91.6094V91.834C120.852 92.3613 120.914 92.8594 121.037 93.3281C121.161 93.7904 121.347 94.2005 121.594 94.5586C121.848 94.9167 122.164 95.1999 122.541 95.4082C122.919 95.61 123.358 95.7109 123.86 95.7109C124.355 95.7109 124.787 95.61 125.159 95.4082C125.536 95.1999 125.849 94.9167 126.096 94.5586C126.343 94.2005 126.529 93.7904 126.653 93.3281C126.783 92.8594 126.848 92.3613 126.848 91.834V91.6094C126.848 91.0885 126.783 90.597 126.653 90.1348C126.529 89.666 126.34 89.2526 126.086 88.8945C125.839 88.5299 125.526 88.2435 125.149 88.0352C124.778 87.8268 124.342 87.7227 123.84 87.7227C123.345 87.7227 122.909 87.8268 122.532 88.0352C122.161 88.2435 121.848 88.5299 121.594 88.8945C121.347 89.2526 121.161 89.666 121.037 90.1348C120.914 90.597 120.852 91.0885 120.852 91.6094ZM136.976 86.4336H138.616V96.7754C138.616 97.7064 138.428 98.5007 138.05 99.1582C137.672 99.8158 137.145 100.314 136.468 100.652C135.797 100.997 135.023 101.17 134.144 101.17C133.779 101.17 133.349 101.111 132.855 100.994C132.366 100.883 131.885 100.691 131.409 100.418C130.941 100.151 130.547 99.7897 130.228 99.334L131.175 98.2598C131.618 98.7936 132.08 99.1647 132.562 99.373C133.05 99.5814 133.532 99.6855 134.007 99.6855C134.58 99.6855 135.075 99.5781 135.491 99.3633C135.908 99.1484 136.23 98.8294 136.458 98.4062C136.693 97.9896 136.81 97.4753 136.81 96.8633V88.7578L136.976 86.4336ZM129.7 91.834V91.6289C129.7 90.8216 129.795 90.0892 129.984 89.4316C130.179 88.7676 130.456 88.1979 130.814 87.7227C131.178 87.2474 131.618 86.8828 132.132 86.6289C132.646 86.3685 133.226 86.2383 133.87 86.2383C134.534 86.2383 135.114 86.3555 135.609 86.5898C136.11 86.8177 136.533 87.153 136.878 87.5957C137.23 88.0319 137.506 88.5592 137.708 89.1777C137.91 89.7962 138.05 90.4961 138.128 91.2773V92.1758C138.057 92.9505 137.917 93.6471 137.708 94.2656C137.506 94.8841 137.23 95.4115 136.878 95.8477C136.533 96.2839 136.11 96.6191 135.609 96.8535C135.107 97.0814 134.521 97.1953 133.851 97.1953C133.219 97.1953 132.646 97.0618 132.132 96.7949C131.624 96.528 131.188 96.1536 130.823 95.6719C130.459 95.1901 130.179 94.6237 129.984 93.9727C129.795 93.3151 129.7 92.6022 129.7 91.834ZM131.507 91.6289V91.834C131.507 92.3613 131.559 92.8561 131.663 93.3184C131.774 93.7806 131.94 94.1875 132.161 94.5391C132.389 94.8906 132.679 95.1673 133.03 95.3691C133.382 95.5645 133.802 95.6621 134.29 95.6621C134.889 95.6621 135.384 95.5352 135.775 95.2812C136.165 95.0273 136.474 94.6921 136.702 94.2754C136.937 93.8587 137.119 93.4062 137.249 92.918V90.5645C137.178 90.2064 137.067 89.8613 136.917 89.5293C136.774 89.1908 136.585 88.8913 136.351 88.6309C136.123 88.3639 135.84 88.1523 135.501 87.9961C135.163 87.8398 134.765 87.7617 134.31 87.7617C133.815 87.7617 133.389 87.8659 133.03 88.0742C132.679 88.276 132.389 88.556 132.161 88.9141C131.94 89.2656 131.774 89.6758 131.663 90.1445C131.559 90.6068 131.507 91.1016 131.507 91.6289ZM143.529 95.9062L146.469 86.4336H148.402L144.164 98.6309C144.066 98.8913 143.936 99.1712 143.773 99.4707C143.617 99.7767 143.415 100.066 143.168 100.34C142.921 100.613 142.621 100.835 142.27 101.004C141.924 101.18 141.511 101.268 141.029 101.268C140.886 101.268 140.704 101.248 140.482 101.209C140.261 101.17 140.105 101.137 140.014 101.111L140.004 99.6465C140.056 99.653 140.137 99.6595 140.248 99.666C140.365 99.679 140.447 99.6855 140.492 99.6855C140.902 99.6855 141.251 99.6302 141.537 99.5195C141.824 99.4154 142.064 99.2363 142.26 98.9824C142.462 98.735 142.634 98.3932 142.777 97.957L143.529 95.9062ZM141.371 86.4336L144.115 94.6367L144.584 96.541L143.285 97.2051L139.398 86.4336H141.371ZM156.021 89.1094L158.15 87.5957C158.56 87.3158 158.876 87.0358 159.097 86.7559C159.325 86.4694 159.439 86.0788 159.439 85.584C159.439 85.1999 159.289 84.8516 158.99 84.5391C158.69 84.2201 158.267 84.0605 157.72 84.0605C157.343 84.0605 157.024 84.1484 156.763 84.3242C156.503 84.5 156.308 84.7344 156.177 85.0273C156.047 85.3138 155.982 85.6296 155.982 85.9746C155.982 86.2676 156.054 86.5703 156.197 86.8828C156.34 87.1953 156.539 87.5208 156.793 87.8594C157.046 88.1979 157.336 88.556 157.662 88.9336L164.39 97H162.222L156.705 90.3984C156.216 89.8255 155.78 89.3014 155.396 88.8262C155.012 88.3444 154.709 87.8789 154.488 87.4297C154.273 86.9805 154.166 86.515 154.166 86.0332C154.166 85.291 154.312 84.666 154.605 84.1582C154.905 83.6439 155.321 83.2533 155.855 82.9863C156.389 82.7194 157.014 82.5859 157.73 82.5859C158.427 82.5859 159.026 82.7259 159.527 83.0059C160.035 83.2793 160.425 83.6439 160.699 84.0996C160.972 84.5488 161.109 85.0436 161.109 85.584C161.109 86.0397 161.028 86.4499 160.865 86.8145C160.702 87.1725 160.474 87.5013 160.181 87.8008C159.895 88.1003 159.56 88.3932 159.175 88.6797L156.353 90.7793C155.884 91.1243 155.543 91.4531 155.328 91.7656C155.113 92.0781 154.973 92.3548 154.908 92.5957C154.849 92.8366 154.82 93.0286 154.82 93.1719C154.82 93.6341 154.921 94.0573 155.123 94.4414C155.324 94.8255 155.63 95.1348 156.041 95.3691C156.457 95.597 156.978 95.7109 157.603 95.7109C158.15 95.7109 158.681 95.5872 159.195 95.3398C159.716 95.0859 160.181 94.7279 160.591 94.2656C161.002 93.7969 161.327 93.2402 161.568 92.5957C161.815 91.9447 161.939 91.2253 161.939 90.4375H163.56C163.56 91.082 163.498 91.6908 163.375 92.2637C163.251 92.8366 163.059 93.3704 162.798 93.8652C162.545 94.3535 162.219 94.7995 161.822 95.2031C161.763 95.2617 161.718 95.3301 161.685 95.4082C161.653 95.4863 161.607 95.5547 161.548 95.6133C161.06 96.1406 160.458 96.5378 159.742 96.8047C159.032 97.0651 158.319 97.1953 157.603 97.1953C156.659 97.1953 155.842 97.0228 155.152 96.6777C154.468 96.3327 153.941 95.8574 153.57 95.252C153.199 94.6465 153.013 93.9531 153.013 93.1719C153.013 92.5729 153.14 92.0456 153.394 91.5898C153.655 91.1341 154.009 90.7077 154.459 90.3105C154.914 89.9134 155.435 89.513 156.021 89.1094ZM171.491 82.7812V97H169.607V82.7812H171.491ZM175.652 88.6895V97H173.846V86.4336H175.555L175.652 88.6895ZM175.223 91.3164L174.471 91.2871C174.477 90.5645 174.585 89.8971 174.793 89.2852C175.001 88.6667 175.294 88.1296 175.672 87.6738C176.049 87.2181 176.499 86.8665 177.02 86.6191C177.547 86.3652 178.13 86.2383 178.768 86.2383C179.288 86.2383 179.757 86.3099 180.174 86.4531C180.59 86.5898 180.945 86.8112 181.238 87.1172C181.538 87.4232 181.766 87.8203 181.922 88.3086C182.078 88.7904 182.156 89.3796 182.156 90.0762V97H180.34V90.0566C180.34 89.5033 180.258 89.0605 180.096 88.7285C179.933 88.39 179.695 88.1458 179.383 87.9961C179.07 87.8398 178.686 87.7617 178.23 87.7617C177.781 87.7617 177.371 87.8561 177 88.0449C176.635 88.2337 176.32 88.4941 176.053 88.8262C175.792 89.1582 175.587 89.5391 175.438 89.9688C175.294 90.3919 175.223 90.8411 175.223 91.3164ZM185.907 88.6895V97H184.1V86.4336H185.809L185.907 88.6895ZM185.477 91.3164L184.725 91.2871C184.732 90.5645 184.839 89.8971 185.048 89.2852C185.256 88.6667 185.549 88.1296 185.927 87.6738C186.304 87.2181 186.753 86.8665 187.274 86.6191C187.802 86.3652 188.384 86.2383 189.022 86.2383C189.543 86.2383 190.012 86.3099 190.429 86.4531C190.845 86.5898 191.2 86.8112 191.493 87.1172C191.792 87.4232 192.02 87.8203 192.177 88.3086C192.333 88.7904 192.411 89.3796 192.411 90.0762V97H190.595V90.0566C190.595 89.5033 190.513 89.0605 190.35 88.7285C190.188 88.39 189.95 88.1458 189.637 87.9961C189.325 87.8398 188.941 87.7617 188.485 87.7617C188.036 87.7617 187.626 87.8561 187.255 88.0449C186.89 88.2337 186.574 88.4941 186.307 88.8262C186.047 89.1582 185.842 89.5391 185.692 89.9688C185.549 90.3919 185.477 90.8411 185.477 91.3164ZM193.877 91.834V91.6094C193.877 90.8477 193.987 90.1413 194.209 89.4902C194.43 88.8327 194.749 88.263 195.166 87.7812C195.582 87.293 196.087 86.9154 196.679 86.6484C197.272 86.375 197.936 86.2383 198.671 86.2383C199.414 86.2383 200.081 86.375 200.673 86.6484C201.272 86.9154 201.78 87.293 202.197 87.7812C202.62 88.263 202.942 88.8327 203.164 89.4902C203.385 90.1413 203.496 90.8477 203.496 91.6094V91.834C203.496 92.5957 203.385 93.3021 203.164 93.9531C202.942 94.6042 202.62 95.1738 202.197 95.6621C201.78 96.1439 201.276 96.5215 200.683 96.7949C200.097 97.0618 199.433 97.1953 198.691 97.1953C197.949 97.1953 197.282 97.0618 196.689 96.7949C196.097 96.5215 195.589 96.1439 195.166 95.6621C194.749 95.1738 194.43 94.6042 194.209 93.9531C193.987 93.3021 193.877 92.5957 193.877 91.834ZM195.683 91.6094V91.834C195.683 92.3613 195.745 92.8594 195.869 93.3281C195.992 93.7904 196.178 94.2005 196.425 94.5586C196.679 94.9167 196.995 95.1999 197.373 95.4082C197.75 95.61 198.19 95.7109 198.691 95.7109C199.186 95.7109 199.619 95.61 199.99 95.4082C200.367 95.1999 200.68 94.9167 200.927 94.5586C201.175 94.2005 201.36 93.7904 201.484 93.3281C201.614 92.8594 201.679 92.3613 201.679 91.834V91.6094C201.679 91.0885 201.614 90.597 201.484 90.1348C201.36 89.666 201.171 89.2526 200.918 88.8945C200.67 88.5299 200.358 88.2435 199.98 88.0352C199.609 87.8268 199.173 87.7227 198.671 87.7227C198.177 87.7227 197.74 87.8268 197.363 88.0352C196.992 88.2435 196.679 88.5299 196.425 88.8945C196.178 89.2526 195.992 89.666 195.869 90.1348C195.745 90.597 195.683 91.0885 195.683 91.6094ZM208.018 95.3691L210.909 86.4336H212.754L208.955 97H207.745L208.018 95.3691ZM205.606 86.4336L208.584 95.418L208.789 97H207.579L203.75 86.4336H205.606ZM219.767 95.1934V89.7539C219.767 89.3372 219.682 88.9759 219.513 88.6699C219.35 88.3574 219.103 88.1165 218.771 87.9473C218.439 87.778 218.029 87.6934 217.54 87.6934C217.085 87.6934 216.684 87.7715 216.339 87.9277C216.001 88.084 215.734 88.2891 215.538 88.543C215.349 88.7969 215.255 89.0703 215.255 89.3633H213.448C213.448 88.9857 213.546 88.6113 213.741 88.2402C213.937 87.8691 214.217 87.5339 214.581 87.2344C214.952 86.9284 215.395 86.6875 215.909 86.5117C216.43 86.3294 217.01 86.2383 217.648 86.2383C218.416 86.2383 219.093 86.3685 219.679 86.6289C220.271 86.8893 220.734 87.2832 221.066 87.8105C221.404 88.3314 221.573 88.9857 221.573 89.7734V94.6953C221.573 95.0469 221.603 95.4212 221.661 95.8184C221.726 96.2155 221.821 96.5573 221.945 96.8438V97H220.06C219.969 96.7917 219.897 96.515 219.845 96.1699C219.793 95.8184 219.767 95.4928 219.767 95.1934ZM220.079 90.5938L220.099 91.8633H218.273C217.758 91.8633 217.299 91.9056 216.896 91.9902C216.492 92.0684 216.154 92.1888 215.88 92.3516C215.607 92.5143 215.398 92.7194 215.255 92.9668C215.112 93.2077 215.04 93.4909 215.04 93.8164C215.04 94.1484 215.115 94.4512 215.265 94.7246C215.415 94.998 215.639 95.2161 215.939 95.3789C216.245 95.5352 216.619 95.6133 217.062 95.6133C217.615 95.6133 218.103 95.4961 218.527 95.2617C218.95 95.0273 219.285 94.7409 219.532 94.4023C219.786 94.0638 219.923 93.735 219.943 93.416L220.714 94.2852C220.668 94.5586 220.545 94.8613 220.343 95.1934C220.141 95.5254 219.871 95.8444 219.532 96.1504C219.2 96.4499 218.803 96.7005 218.341 96.9023C217.885 97.0977 217.371 97.1953 216.798 97.1953C216.082 97.1953 215.454 97.0553 214.913 96.7754C214.379 96.4954 213.963 96.1211 213.663 95.6523C213.37 95.1771 213.224 94.6465 213.224 94.0605C213.224 93.4941 213.335 92.9961 213.556 92.5664C213.777 92.1302 214.096 91.7689 214.513 91.4824C214.93 91.1895 215.431 90.9681 216.017 90.8184C216.603 90.6686 217.257 90.5938 217.98 90.5938H220.079ZM228.039 86.4336V87.8203H222.326V86.4336H228.039ZM224.26 83.8652H226.066V94.3828C226.066 94.7409 226.122 95.0111 226.232 95.1934C226.343 95.3757 226.486 95.4961 226.662 95.5547C226.838 95.6133 227.027 95.6426 227.229 95.6426C227.378 95.6426 227.535 95.6296 227.697 95.6035C227.867 95.571 227.993 95.5449 228.078 95.5254L228.088 97C227.945 97.0456 227.756 97.0879 227.521 97.127C227.294 97.1725 227.017 97.1953 226.691 97.1953C226.249 97.1953 225.842 97.1074 225.471 96.9316C225.1 96.7559 224.803 96.4629 224.582 96.0527C224.367 95.6361 224.26 95.0762 224.26 94.373V83.8652ZM231.321 86.4336V97H229.505V86.4336H231.321ZM229.368 83.6309C229.368 83.3379 229.456 83.0905 229.632 82.8887C229.814 82.6868 230.081 82.5859 230.432 82.5859C230.777 82.5859 231.041 82.6868 231.223 82.8887C231.412 83.0905 231.507 83.3379 231.507 83.6309C231.507 83.9108 231.412 84.1517 231.223 84.3535C231.041 84.5488 230.777 84.6465 230.432 84.6465C230.081 84.6465 229.814 84.5488 229.632 84.3535C229.456 84.1517 229.368 83.9108 229.368 83.6309ZM232.943 91.834V91.6094C232.943 90.8477 233.054 90.1413 233.275 89.4902C233.496 88.8327 233.815 88.263 234.232 87.7812C234.649 87.293 235.153 86.9154 235.746 86.6484C236.338 86.375 237.002 86.2383 237.738 86.2383C238.48 86.2383 239.147 86.375 239.74 86.6484C240.339 86.9154 240.847 87.293 241.263 87.7812C241.686 88.263 242.009 88.8327 242.23 89.4902C242.451 90.1413 242.562 90.8477 242.562 91.6094V91.834C242.562 92.5957 242.451 93.3021 242.23 93.9531C242.009 94.6042 241.686 95.1738 241.263 95.6621C240.847 96.1439 240.342 96.5215 239.75 96.7949C239.164 97.0618 238.5 97.1953 237.757 97.1953C237.015 97.1953 236.348 97.0618 235.755 96.7949C235.163 96.5215 234.655 96.1439 234.232 95.6621C233.815 95.1738 233.496 94.6042 233.275 93.9531C233.054 93.3021 232.943 92.5957 232.943 91.834ZM234.75 91.6094V91.834C234.75 92.3613 234.811 92.8594 234.935 93.3281C235.059 93.7904 235.244 94.2005 235.492 94.5586C235.746 94.9167 236.061 95.1999 236.439 95.4082C236.817 95.61 237.256 95.7109 237.757 95.7109C238.252 95.7109 238.685 95.61 239.056 95.4082C239.434 95.1999 239.746 94.9167 239.994 94.5586C240.241 94.2005 240.427 93.7904 240.55 93.3281C240.681 92.8594 240.746 92.3613 240.746 91.834V91.6094C240.746 91.0885 240.681 90.597 240.55 90.1348C240.427 89.666 240.238 89.2526 239.984 88.8945C239.737 88.5299 239.424 88.2435 239.046 88.0352C238.675 87.8268 238.239 87.7227 237.738 87.7227C237.243 87.7227 236.807 87.8268 236.429 88.0352C236.058 88.2435 235.746 88.5299 235.492 88.8945C235.244 89.2526 235.059 89.666 234.935 90.1348C234.811 90.597 234.75 91.0885 234.75 91.6094ZM245.834 88.6895V97H244.028V86.4336H245.737L245.834 88.6895ZM245.405 91.3164L244.653 91.2871C244.659 90.5645 244.767 89.8971 244.975 89.2852C245.183 88.6667 245.476 88.1296 245.854 87.6738C246.232 87.2181 246.681 86.8665 247.202 86.6191C247.729 86.3652 248.312 86.2383 248.95 86.2383C249.47 86.2383 249.939 86.3099 250.356 86.4531C250.773 86.5898 251.127 86.8112 251.42 87.1172C251.72 87.4232 251.948 87.8203 252.104 88.3086C252.26 88.7904 252.338 89.3796 252.338 90.0762V97H250.522V90.0566C250.522 89.5033 250.441 89.0605 250.278 88.7285C250.115 88.39 249.877 88.1458 249.565 87.9961C249.252 87.8398 248.868 87.7617 248.413 87.7617C247.963 87.7617 247.553 87.8561 247.182 88.0449C246.817 88.2337 246.502 88.4941 246.235 88.8262C245.974 89.1582 245.769 89.5391 245.62 89.9688C245.476 90.3919 245.405 90.8411 245.405 91.3164ZM260.571 82.7812L254.644 98.2207H253.091L259.029 82.7812H260.571ZM268.629 90.8281L261.686 88.123V86.2578L270.025 89.9492V91.0918L268.629 90.8281ZM261.686 93.2109L268.648 90.4473L270.025 90.2422V91.375L261.686 95.0762V93.2109Z" fill="white"/>
<defs>
<linearGradient id="paint0_linear_38404_379" x1="5.23127" y1="8.22197" x2="307.694" y2="7.74059" gradientUnits="userSpaceOnUse">
<stop stop-color="#AE67FA"/>
<stop offset="0.973958" stop-color="#F49867"/>
</linearGradient>
</defs>
</svg>
