<svg width="291" height="60" viewBox="0 0 291 60" fill="none" xmlns="http://www.w3.org/2000/svg">
<path d="M18.274 59.496C12.7767 59.496 8.37467 58.4627 5.068 56.396C1.76133 54.288 0.108 51.0847 0.108 46.786C0.108 44.5127 0.500667 42.7767 1.286 41.578C2.07133 40.3793 3.22867 39.78 4.758 39.78C5.874 39.78 6.78333 40.0693 7.486 40.648C8.18867 41.2267 8.54 41.9707 8.54 42.88C8.54 43.7067 8.478 44.43 8.354 45.05C8.354 45.2153 8.31267 45.5047 8.23 45.918C8.18867 46.3313 8.168 46.7653 8.168 47.22C8.168 49.08 9.098 50.4647 10.958 51.374C12.8593 52.2833 15.5047 52.738 18.894 52.738C22.4073 52.738 25.156 52.118 27.14 50.878C29.124 49.5967 30.116 47.8193 30.116 45.546C30.116 44.1407 29.6613 42.942 28.752 41.95C27.8427 40.9167 26.706 40.0693 25.342 39.408C23.978 38.7053 22.056 37.858 19.576 36.866C16.3933 35.626 13.7893 34.448 11.764 33.332C9.78 32.216 8.06467 30.7073 6.618 28.806C5.21267 26.8633 4.51 24.466 4.51 21.614C4.51 18.638 5.29533 15.9927 6.866 13.678C8.478 11.3633 10.772 9.56533 13.748 8.284C16.7653 7.00266 20.2993 6.362 24.35 6.362C27.3673 6.362 30.1367 6.81666 32.658 7.726C35.1793 8.594 37.184 9.93733 38.672 11.756C40.2013 13.5747 40.966 15.8067 40.966 18.452C40.966 21.056 40.5733 23.0193 39.788 24.342C39.0027 25.6647 37.8453 26.326 36.316 26.326C35.2413 26.326 34.332 25.9953 33.588 25.334C32.8853 24.6727 32.534 23.8873 32.534 22.978C32.534 22.1927 32.596 21.4693 32.72 20.808C32.844 19.568 32.906 18.7827 32.906 18.452C32.906 16.716 32.0587 15.3933 30.364 14.484C28.6693 13.5747 26.5613 13.12 24.04 13.12C20.4853 13.12 17.7573 13.7813 15.856 15.104C13.996 16.3853 13.066 18.204 13.066 20.56C13.066 22.1307 13.5413 23.474 14.492 24.59C15.484 25.706 16.7033 26.636 18.15 27.38C19.5967 28.124 21.622 29.0127 24.226 30.046C27.3673 31.3273 29.8887 32.4847 31.79 33.518C33.6913 34.5513 35.3033 35.9567 36.626 37.734C37.99 39.5113 38.672 41.702 38.672 44.306C38.672 49.1833 36.812 52.9447 33.092 55.59C29.4133 58.194 24.474 59.496 18.274 59.496ZM49.1103 59.31C46.5476 59.31 44.5016 58.38 42.9723 56.52C41.4429 54.66 40.6783 52.2213 40.6783 49.204C40.6783 45.8973 41.4429 42.7767 42.9723 39.842C44.5016 36.866 46.5269 34.4893 49.0483 32.712C51.6109 30.8933 54.3183 29.984 57.1703 29.984C58.0796 29.984 58.6789 30.17 58.9683 30.542C59.2989 30.8727 59.5676 31.4927 59.7743 32.402C60.6423 32.2367 61.5516 32.154 62.5023 32.154C64.5276 32.154 65.5403 32.8773 65.5403 34.324C65.5403 35.192 65.2303 37.2587 64.6103 40.524C63.6596 45.2773 63.1843 48.584 63.1843 50.444C63.1843 51.064 63.329 51.56 63.6183 51.932C63.9489 52.304 64.3623 52.49 64.8583 52.49C65.6436 52.49 66.5943 51.994 67.7103 51.002C68.8263 49.9687 70.335 48.3153 72.2363 46.042C72.7323 45.4633 73.2903 45.174 73.9103 45.174C74.4476 45.174 74.861 45.422 75.1503 45.918C75.481 46.414 75.6463 47.096 75.6463 47.964C75.6463 49.6173 75.2536 50.8987 74.4683 51.808C72.7736 53.916 70.9756 55.6933 69.0743 57.14C67.173 58.5867 65.3336 59.31 63.5563 59.31C62.1923 59.31 60.9316 58.8553 59.7743 57.946C58.6583 56.9953 57.8109 55.714 57.2323 54.102C55.0829 57.574 52.3756 59.31 49.1103 59.31ZM51.3423 53.048C52.2516 53.048 53.1196 52.5107 53.9463 51.436C54.7729 50.3613 55.3723 48.9353 55.7443 47.158L58.0383 35.75C56.3023 35.7913 54.6903 36.4527 53.2023 37.734C51.7556 38.974 50.5983 40.6273 49.7303 42.694C48.8623 44.7607 48.4283 46.9513 48.4283 49.266C48.4283 50.5473 48.6763 51.498 49.1723 52.118C49.7096 52.738 50.4329 53.048 51.3423 53.048ZM74.4513 59.31C72.5913 59.31 71.062 58.4627 69.8633 56.768C68.706 55.032 68.1273 52.8827 68.1273 50.32C68.1273 47.22 68.334 44.3887 68.7473 41.826C69.1607 39.222 69.8427 36.4733 70.7933 33.58C71.2067 32.34 71.7853 31.4513 72.5293 30.914C73.2733 30.3767 74.4513 30.108 76.0633 30.108C76.9727 30.108 77.5927 30.2527 77.9233 30.542C78.2953 30.8313 78.4813 31.2653 78.4813 31.844C78.4813 32.1747 78.254 33.2907 77.7993 35.192C77.386 36.7213 77.0553 38.106 76.8073 39.346C75.9807 43.686 75.5673 46.5793 75.5673 48.026C75.5673 48.894 75.6707 49.514 75.8773 49.886C76.084 50.2167 76.4147 50.382 76.8693 50.382C77.4893 50.382 78.254 49.762 79.1633 48.522C80.114 47.282 81.106 45.4013 82.1393 42.88C83.214 40.3587 84.2473 37.2587 85.2393 33.58C85.57 32.34 86.066 31.4513 86.7273 30.914C87.43 30.3767 88.4633 30.108 89.8273 30.108C90.778 30.108 91.4393 30.232 91.8113 30.48C92.1833 30.6867 92.3693 31.1 92.3693 31.72C92.3693 32.7533 91.8527 35.5847 90.8193 40.214C89.662 45.5047 89.0833 48.77 89.0833 50.01C89.0833 50.7953 89.2487 51.4153 89.5793 51.87C89.91 52.2833 90.344 52.49 90.8813 52.49C91.708 52.49 92.6793 51.994 93.7953 51.002C94.9527 49.9687 96.482 48.3153 98.3833 46.042C98.8793 45.4633 99.4373 45.174 100.057 45.174C100.595 45.174 101.008 45.422 101.297 45.918C101.628 46.414 101.793 47.096 101.793 47.964C101.793 49.6173 101.401 50.8987 100.615 51.808C98.838 53.9987 96.916 55.7967 94.8493 57.202C92.824 58.6073 90.5093 59.31 87.9053 59.31C85.9213 59.31 84.454 58.5453 83.5033 57.016C82.594 55.4867 82.1393 53.3373 82.1393 50.568C81.4367 53.3787 80.3827 55.5487 78.9773 57.078C77.572 58.566 76.0633 59.31 74.4513 59.31ZM98.688 59.31C97.1173 59.31 96.0013 58.4833 95.34 56.83C94.72 55.1767 94.41 52.5313 94.41 48.894C94.41 43.5207 95.1747 38.416 96.704 33.58C97.076 32.3813 97.6753 31.5133 98.502 30.976C99.37 30.3973 100.569 30.108 102.098 30.108C102.925 30.108 103.503 30.2113 103.834 30.418C104.165 30.6247 104.33 31.0173 104.33 31.596C104.33 32.2573 104.02 33.7453 103.4 36.06C102.987 37.7133 102.656 39.16 102.408 40.4C102.16 41.64 101.953 43.1693 101.788 44.988C103.152 41.4333 104.681 38.54 106.376 36.308C108.071 34.076 109.724 32.4847 111.336 31.534C112.989 30.5833 114.498 30.108 115.862 30.108C118.549 30.108 119.892 31.4513 119.892 34.138C119.892 34.6753 119.706 35.9773 119.334 38.044C119.003 39.6973 118.838 40.7307 118.838 41.144C118.838 42.5907 119.355 43.314 120.388 43.314C121.545 43.314 123.033 42.4047 124.852 40.586C125.389 40.0487 125.947 39.78 126.526 39.78C127.063 39.78 127.477 40.028 127.766 40.524C128.097 40.9787 128.262 41.5987 128.262 42.384C128.262 43.9133 127.849 45.112 127.022 45.98C125.865 47.1787 124.501 48.212 122.93 49.08C121.401 49.9067 119.768 50.32 118.032 50.32C115.841 50.32 114.167 49.762 113.01 48.646C111.894 47.53 111.336 46.0213 111.336 44.12C111.336 43.5 111.398 42.88 111.522 42.26C111.605 41.4333 111.646 40.8753 111.646 40.586C111.646 39.9247 111.419 39.594 110.964 39.594C110.344 39.594 109.517 40.2967 108.484 41.702C107.492 43.066 106.5 44.8847 105.508 47.158C104.516 49.4313 103.71 51.8287 103.09 54.35C102.635 56.2927 102.098 57.6153 101.478 58.318C100.899 58.9793 99.9693 59.31 98.688 59.31ZM128.143 26.016C126.407 26.016 125.105 25.6233 124.237 24.838C123.369 24.0113 122.935 22.8747 122.935 21.428C122.935 19.9813 123.493 18.7827 124.609 17.832C125.766 16.84 127.192 16.344 128.887 16.344C130.416 16.344 131.656 16.716 132.607 17.46C133.558 18.204 134.033 19.258 134.033 20.622C134.033 22.2753 133.496 23.598 132.421 24.59C131.346 25.5407 129.92 26.016 128.143 26.016ZM127.647 59.31C124.96 59.31 122.997 58.3593 121.757 56.458C120.558 54.5567 119.959 52.0353 119.959 48.894C119.959 47.034 120.186 44.6573 120.641 41.764C121.137 38.8293 121.757 36.1013 122.501 33.58C122.873 32.2573 123.369 31.348 123.989 30.852C124.609 30.356 125.601 30.108 126.965 30.108C129.073 30.108 130.127 30.8107 130.127 32.216C130.127 33.2493 129.734 35.6467 128.949 39.408C127.957 43.9547 127.461 47.034 127.461 48.646C127.461 49.886 127.626 50.8367 127.957 51.498C128.288 52.1593 128.846 52.49 129.631 52.49C130.375 52.49 131.305 51.9733 132.421 50.94C133.537 49.9067 135.025 48.274 136.885 46.042C137.381 45.4633 137.939 45.174 138.559 45.174C139.096 45.174 139.51 45.422 139.799 45.918C140.13 46.414 140.295 47.096 140.295 47.964C140.295 49.6173 139.902 50.8987 139.117 51.808C135.025 56.8093 131.202 59.31 127.647 59.31ZM143.277 59.31C140.838 59.31 138.751 58.7107 137.015 57.512C135.32 56.272 134.039 54.66 133.171 52.676C132.303 50.692 131.869 48.5633 131.869 46.29C131.869 43.1487 132.447 40.3587 133.605 37.92C134.803 35.44 136.415 33.518 138.441 32.154C140.466 30.7487 142.739 30.046 145.261 30.046C147.699 30.046 149.787 30.666 151.523 31.906C153.259 33.1047 154.561 34.696 155.429 36.68C156.297 38.664 156.731 40.7927 156.731 43.066C156.731 46.2073 156.131 49.018 154.933 51.498C153.734 53.9367 152.101 55.8587 150.035 57.264C148.009 58.628 145.757 59.31 143.277 59.31ZM143.959 52.614C145.364 52.614 146.542 51.8493 147.493 50.32C148.485 48.7907 148.981 46.5587 148.981 43.624C148.981 41.3507 148.567 39.6353 147.741 38.478C146.914 37.3207 145.922 36.742 144.765 36.742C143.277 36.742 142.037 37.5067 141.045 39.036C140.094 40.524 139.619 42.756 139.619 45.732C139.619 48.088 140.032 49.824 140.859 50.94C141.685 52.056 142.719 52.614 143.959 52.614ZM197.451 59.31C192.532 59.31 188.254 58.4213 184.617 56.644C180.979 54.8253 178.189 52.2627 176.247 48.956C174.304 45.6493 173.333 41.8053 173.333 37.424C173.333 31.348 174.469 25.954 176.743 21.242C179.057 16.53 182.178 12.8927 186.105 10.33C190.031 7.726 194.392 6.424 199.187 6.424C203.651 6.424 207.04 7.58133 209.355 9.896C211.669 12.1693 212.827 15.1867 212.827 18.948C212.827 21.4693 212.372 23.4947 211.463 25.024C210.595 26.5533 209.334 27.318 207.681 27.318C206.523 27.318 205.614 27.0493 204.953 26.512C204.291 25.9747 203.961 25.1893 203.961 24.156C203.961 23.784 204.043 23.102 204.209 22.11C204.457 20.87 204.581 19.878 204.581 19.134C204.581 15.3727 202.576 13.492 198.567 13.492C195.839 13.492 193.235 14.3807 190.755 16.158C188.275 17.9353 186.27 20.56 184.741 24.032C183.211 27.4627 182.447 31.5547 182.447 36.308C182.447 41.268 183.831 45.112 186.601 47.84C189.37 50.5267 193.462 51.87 198.877 51.87C201.563 51.87 204.271 51.5393 206.999 50.878C209.768 50.1753 212.827 49.1213 216.175 47.716C216.795 47.468 217.311 47.344 217.725 47.344C218.386 47.344 218.882 47.592 219.213 48.088C219.543 48.584 219.709 49.2247 219.709 50.01C219.709 52.5313 218.345 54.3913 215.617 55.59C212.682 56.8713 209.623 57.822 206.441 58.442C203.299 59.0207 200.303 59.31 197.451 59.31ZM243.379 39.966C243.916 39.966 244.33 40.2347 244.619 40.772C244.908 41.3093 245.053 41.9913 245.053 42.818C245.053 44.802 244.454 45.98 243.255 46.352C240.775 47.22 238.047 47.716 235.071 47.84C234.286 51.312 232.736 54.102 230.421 56.21C228.106 58.2767 225.482 59.31 222.547 59.31C220.067 59.31 217.938 58.7107 216.161 57.512C214.425 56.3133 213.102 54.722 212.193 52.738C211.284 50.754 210.829 48.6047 210.829 46.29C210.829 43.1487 211.428 40.3587 212.627 37.92C213.826 35.44 215.479 33.518 217.587 32.154C219.695 30.7487 222.03 30.046 224.593 30.046C227.734 30.046 230.256 31.1413 232.157 33.332C234.1 35.4813 235.236 38.1473 235.567 41.33C237.51 41.206 239.824 40.7927 242.511 40.09C242.842 40.0073 243.131 39.966 243.379 39.966ZM223.043 52.738C224.366 52.738 225.502 52.2007 226.453 51.126C227.445 50.0513 228.106 48.5013 228.437 46.476C227.156 45.608 226.164 44.4713 225.461 43.066C224.8 41.6607 224.469 40.1727 224.469 38.602C224.469 37.9407 224.531 37.2793 224.655 36.618H224.345C222.692 36.618 221.307 37.424 220.191 39.036C219.116 40.6067 218.579 42.8387 218.579 45.732C218.579 48.0053 219.013 49.7413 219.881 50.94C220.79 52.1387 221.844 52.738 223.043 52.738ZM272.468 45.174C273.005 45.174 273.418 45.422 273.708 45.918C274.038 46.414 274.204 47.096 274.204 47.964C274.204 49.6173 273.811 50.8987 273.026 51.808C271.331 53.8747 269.471 55.652 267.446 57.14C265.42 58.5867 263.416 59.31 261.432 59.31C258.29 59.31 255.893 57.4707 254.24 53.792C252.504 55.9827 250.974 57.45 249.652 58.194C248.37 58.938 246.862 59.31 245.126 59.31C242.604 59.31 240.517 58.38 238.864 56.52C237.252 54.6187 236.446 52.1593 236.446 49.142C236.446 45.8353 237.148 42.7767 238.554 39.966C239.959 37.114 241.881 34.7993 244.32 33.022C246.8 31.2033 249.569 30.1287 252.628 29.798C253.413 21.7793 254.901 14.9387 257.092 9.276C259.324 3.572 262.238 0.719996 265.834 0.719996C267.611 0.719996 269.078 1.526 270.236 3.138C271.434 4.75 272.034 7.18866 272.034 10.454C272.034 15.0833 270.897 20.498 268.624 26.698C266.35 32.898 263.312 39.2633 259.51 45.794C259.675 48.1913 260.026 49.9067 260.564 50.94C261.142 51.9733 261.866 52.49 262.734 52.49C263.85 52.49 264.986 51.994 266.144 51.002C267.301 50.01 268.851 48.3567 270.794 46.042C271.29 45.4633 271.848 45.174 272.468 45.174ZM265.152 6.796C264.366 6.796 263.581 8.20133 262.796 11.012C262.01 13.7813 261.328 17.4187 260.75 21.924C260.212 26.4293 259.82 31.1413 259.572 36.06C264.201 25.9747 266.516 17.8733 266.516 11.756C266.516 10.1853 266.371 8.966 266.082 8.098C265.834 7.23 265.524 6.796 265.152 6.796ZM247.296 53.048C248.081 53.048 248.866 52.738 249.652 52.118C250.437 51.4567 251.429 50.258 252.628 48.522C252.214 46.29 252.008 43.7893 252.008 41.02C252.008 40.028 252.049 38.416 252.132 36.184C249.858 36.8867 247.957 38.416 246.428 40.772C244.94 43.0867 244.196 45.67 244.196 48.522C244.196 51.5393 245.229 53.048 247.296 53.048ZM288.876 47.034C289.413 47.034 289.827 47.282 290.116 47.778C290.447 48.274 290.612 48.956 290.612 49.824C290.612 51.312 290.261 52.5933 289.558 53.668C288.401 55.4453 286.871 56.83 284.97 57.822C283.11 58.814 280.878 59.31 278.274 59.31C274.306 59.31 271.227 58.132 269.036 55.776C266.845 53.3787 265.75 50.1547 265.75 46.104C265.75 43.252 266.349 40.6067 267.548 38.168C268.747 35.688 270.4 33.7247 272.508 32.278C274.657 30.8313 277.075 30.108 279.762 30.108C282.159 30.108 284.081 30.8313 285.528 32.278C286.975 33.6833 287.698 35.6053 287.698 38.044C287.698 40.896 286.665 43.3553 284.598 45.422C282.573 47.4473 279.101 49.0593 274.182 50.258C275.174 52.1593 276.848 53.11 279.204 53.11C280.899 53.11 282.283 52.7173 283.358 51.932C284.474 51.1467 285.755 49.824 287.202 47.964C287.698 47.344 288.256 47.034 288.876 47.034ZM278.708 36.184C277.179 36.184 275.877 37.0727 274.802 38.85C273.769 40.6273 273.252 42.7767 273.252 45.298V45.422C275.691 44.8433 277.613 43.9753 279.018 42.818C280.423 41.6607 281.126 40.3173 281.126 38.788C281.126 38.0027 280.899 37.3827 280.444 36.928C280.031 36.432 279.452 36.184 278.708 36.184Z" fill="url(#paint0_linear_38406_10)"/>
<defs>
<linearGradient id="paint0_linear_38406_10" x1="3.23127" y1="2.07778" x2="305.694" y2="1.51858" gradientUnits="userSpaceOnUse">
<stop stop-color="#AE67FA"/>
<stop offset="0.973958" stop-color="#F49867"/>
</linearGradient>
</defs>
</svg>
